<?xml version="1.0" encoding="UTF-8" standalone="no"?>
<!-- Created with Inkscape (http://www.inkscape.org/) -->

<svg
   xmlns:dc="http://purl.org/dc/elements/1.1/"
   xmlns:cc="http://creativecommons.org/ns#"
   xmlns:rdf="http://www.w3.org/1999/02/22-rdf-syntax-ns#"
   xmlns:svg="http://www.w3.org/2000/svg"
   xmlns="http://www.w3.org/2000/svg"
   xmlns:sodipodi="http://sodipodi.sourceforge.net/DTD/sodipodi-0.dtd"
   xmlns:inkscape="http://www.inkscape.org/namespaces/inkscape"
   version="1.1"
   id="svg2"
   width="666.66669"
   height="666.66669"
   viewBox="0 0 666.66669 666.66669"
   sodipodi:docname="circle_template.svg"
   inkscape:version="0.92.1 r15371">
  <metadata
     id="metadata8">
    <rdf:RDF>
      <cc:Work
         rdf:about="">
        <dc:format>image/svg+xml</dc:format>
        <dc:type
           rdf:resource="http://purl.org/dc/dcmitype/StillImage" />
        <dc:title></dc:title>
      </cc:Work>
    </rdf:RDF>
  </metadata>
  <defs
     id="defs6" />
  <sodipodi:namedview
     pagecolor="#ffffff"
     bordercolor="#666666"
     borderopacity="1"
     objecttolerance="10"
     gridtolerance="10"
     guidetolerance="10"
     inkscape:pageopacity="0"
     inkscape:pageshadow="2"
     inkscape:window-width="1920"
     inkscape:window-height="1013"
     id="namedview4"
     showgrid="false"
     inkscape:zoom="2"
     inkscape:cx="339.59664"
     inkscape:cy="565.64552"
     inkscape:window-x="-9"
     inkscape:window-y="-9"
     inkscape:window-maximized="1"
     inkscape:current-layer="svg2" />
  <path
     style="fill:#00ffff;stroke-width:1.33333337"
     d="M 142.6592,141.90763 98.000003,97.148584 106,89.75829 c 4.4,-4.064662 14.11343,-12.273092 21.58539,-18.240952 7.47196,-5.96787 19.77196,-14.71009 27.33334,-19.42715 7.56137,-4.71707 20.34794,-11.94036 28.41461,-16.05176 8.06667,-4.1114 20.96667,-9.93441 28.66667,-12.94004 7.7,-3.00562 20.46504,-7.31207 28.36675,-9.56988 7.9017,-2.25781 19.3017,-5.0815902 25.33333,-6.2750602 6.03163,-1.19348 18.76659,-3.25168 28.29992,-4.57377 10.94116,-1.51733 25.44647,-2.40465996 39.33333,-2.40613996 13.80785,-0.001 28.70269,0.90141996 40.00001,2.42470996 9.9,1.33487 22.5,3.43467 28,4.6662 5.5,1.23154 16.30668,3.9677402 24.01485,6.0804402 7.70818,2.11271 20.07676,6.20368 27.48575,9.09105 7.40899,2.88737 20.00229,8.50089 27.98515,12.47448 7.98284,3.97359 16.8958,8.58545 19.80657,10.24856 2.91079,1.66312 11.01952,6.84895 18.01941,11.52408 6.99991,4.67513 17.51837,12.34779 23.37435,17.05036 5.85599,4.70256 14.24726,11.87333 18.64726,15.93504 l 8,7.384922 -44.89703,44.98454 -44.89704,44.98454 -7.57664,-6.92461 c -4.16715,-3.80855 -10.9635,-9.5016 -15.10298,-12.65123 -4.13946,-3.14964 -11.12632,-7.86996 -15.52632,-10.48959 -4.4,-2.61964 -12.2,-6.86014 -17.33333,-9.42334 -5.13334,-2.5632 -14.73334,-6.57757 -21.33334,-8.92079 -6.6,-2.34324 -18.82769,-5.68752 -27.17264,-7.43174 -8.34496,-1.74422 -22.44496,-3.57029 -31.33333,-4.05793 -9.5976,-0.52655 -22.11704,-0.26252 -30.82736,0.65015 -8.06667,0.84522 -20.90947,3.0745 -28.53956,4.95395 -7.6301,1.87945 -18.45883,5.16838 -24.06386,7.30874 -5.60502,2.14035 -14.96222,6.33111 -20.79377,9.31279 -5.83155,2.98167 -15.5738,8.76251 -21.64944,12.84629 -6.07564,4.08379 -15.16496,11.23803 -20.1985,15.8983 -5.03352,4.66028 -9.36589,8.47322 -9.62749,8.47322 -0.26161,0 -20.57229,-20.14157 -45.13486,-44.75904 z"
     id="path54"
     inkscape:connector-curvature="0" />
  <path
     style="fill:#00ffff;stroke-width:0.89999993;stroke:none;stroke-opacity:1;stroke-miterlimit:4;stroke-dasharray:none;stroke-linejoin:round;stroke-dashoffset:32.00000048"
     d="M 142.6592,141.90763 98.000003,97.148584 106,89.75829 c 4.4,-4.064662 14.11343,-12.273092 21.58539,-18.240952 7.47196,-5.96787 19.77196,-14.71009 27.33334,-19.42715 7.56137,-4.71707 20.34794,-11.94036 28.41461,-16.05176 8.06667,-4.1114 20.96667,-9.93441 28.66667,-12.94004 7.7,-3.00562 20.46504,-7.31207 28.36675,-9.56988 7.9017,-2.25781 19.3017,-5.0815902 25.33333,-6.2750602 6.03163,-1.19348 18.76659,-3.25168 28.29992,-4.57377 10.94116,-1.51733 25.44647,-2.40465996 39.33333,-2.40613996 13.80785,-0.001 28.70269,0.90141996 40.00001,2.42470996 9.9,1.33487 22.5,3.43467 28,4.6662 5.5,1.23154 16.30668,3.9677402 24.01485,6.0804402 7.70818,2.11271 20.07676,6.20368 27.48575,9.09105 7.40899,2.88737 20.00229,8.50089 27.98515,12.47448 7.98284,3.97359 16.8958,8.58545 19.80657,10.24856 2.91079,1.66312 11.01952,6.84895 18.01941,11.52408 6.99991,4.67513 17.51837,12.34779 23.37435,17.05036 5.85599,4.70256 14.24726,11.87333 18.64726,15.93504 l 8,7.384922 -44.89703,44.98454 -44.89704,44.98454 -7.57664,-6.92461 c -4.16715,-3.80855 -10.9635,-9.5016 -15.10298,-12.65123 -4.13946,-3.14964 -11.12632,-7.86996 -15.52632,-10.48959 -4.4,-2.61964 -12.2,-6.86014 -17.33333,-9.42334 -5.13334,-2.5632 -14.73334,-6.57757 -21.33334,-8.92079 -6.6,-2.34324 -18.82769,-5.68752 -27.17264,-7.43174 -8.34496,-1.74422 -22.44496,-3.57029 -31.33333,-4.05793 -9.5976,-0.52655 -22.11704,-0.26252 -30.82736,0.65015 -8.06667,0.84522 -20.90947,3.0745 -28.53956,4.95395 -7.6301,1.87945 -18.45883,5.16838 -24.06386,7.30874 -5.60502,2.14035 -14.96222,6.33111 -20.79377,9.31279 -5.83155,2.98167 -15.5738,8.76251 -21.64944,12.84629 -6.07564,4.08379 -15.16496,11.23803 -20.1985,15.8983 -5.03352,4.66028 -9.36589,8.47322 -9.62749,8.47322 -0.26161,0 -20.57229,-20.14157 -45.13486,-44.75904 z"
     id="path54-0"
     inkscape:connector-curvature="0" />
</svg>
